<?xml version="1.0" encoding="UTF-8"?>
<!DOCTYPE svg  PUBLIC '-//W3C//DTD SVG 1.1//EN'  'http://www.w3.org/Graphics/SVG/1.1/DTD/svg11.dtd'>
<svg width="297mm" height="210mm" clip-rule="evenodd" fill-rule="evenodd" image-rendering="optimizeQuality" shape-rendering="geometricPrecision" text-rendering="geometricPrecision" version="1.1" viewBox="0 0 29700 21000" xml:space="preserve" xmlns="http://www.w3.org/2000/svg">
 <defs>
  <style type="text/css">
   <![CDATA[
    .str0 {stroke:black;stroke-width:7.62}
    .fil1 {fill:black}
    .fil10 {fill:#1767A4}
    .fil0 {fill:#1A68A3}
    .fil20 {fill:#333333}
    .fil8 {fill:#5E5B5B}
    .fil4 {fill:#5E5B5B}
    .fil5 {fill:#616161}
    .fil2 {fill:#CACCCC}
    .fil19 {fill:#CCCCCC}
    .fil21 {fill:#D61B1D}
    .fil11 {fill:#D61B1D}
    .fil18 {fill:#E62024}
    .fil17 {fill:#F23034}
    .fil16 {fill:#F2F203}
    .fil3 {fill:#F6D5B8}
    .fil15 {fill:#FFCC00}
    .fil9 {fill:#FFCC00}
    .fil12 {fill:yellow}
    .fil22 {fill:yellow}
    .fil6 {fill:white}
    .fil23 {fill:black;fill-rule:nonzero}
    .fil14 {fill:black;fill-rule:nonzero}
    .fil7 {fill:#5E5B5B;fill-rule:nonzero}
    .fil13 {fill:yellow;fill-rule:nonzero}
   ]]>
  </style>
 </defs>
  <rect class="fil0" x="1241" y="427" width="27218" height="20146"/>
    <path class="fil1" d="m4331 12646c0-4-1-8-1-12-7-158 39-329 117-466l1e3 -1765c287-542 776-1031 1340-1292-122-41-240-94-355-160-762-440-1195-1354-1429-2167-198-688-307-1478-285-2194 29-957 345-1800 702-2673 85-208 266-461 519-452 116 5 213 67 286 155 262 316 473 659 705 997 266-160 562-257 876-257h1227c317 0 615 99 884 261 252-321 442-684 704-1001 73-88 170-150 287-155 252-9 433 244 518 452 357 873 673 1716 702 2673 22 716-88 1507-287 2194-276 957-814 1990-1763 2319 572 259 1068 752 1356 1298l1002 1767c78 137 124 308 117 466 0 4-1 8-1 12 71 24 133 73 172 140l346 595c87 150 35 343-115 430l-53 31 6 12c204 476 360 970 449 1481 6 33-2 64-25 89-22 25-52 38-85 36-690-34-1231 204-1597 793-30 48-93 65-143 37-103-56-209-108-317-155-9 612-24 1238-68 1847-6 77-3 154-9 230l422 117c244 67 475 220 475 500v197c0 274-232 556-523 502l-1395-257c-256-47-484-223-484-502 0-168 22-342 38-509 15-149 49-464-3-602-178-473-362-960-543-1441-176 99-341 218-486 358-52 50-102 129-181 128s-126-80-175-133c-137-150-288-285-460-394-186 495-374 993-558 1482-52 138-18 453-3 602 16 167 38 341 38 509 0 279-228 455-484 502l-1395 257c-291 54-523-228-523-502v-197c0-280 231-433 475-500l422-117c-6-76-3-153-9-230-45-627-60-1275-69-1906-157 63-311 133-459 214-50 28-112 11-142-37-367-589-908-827-1597-793-34 2-64-11-86-36s-31-56-25-89c94-535 260-1051 479-1548 2-6 6-12 9-17-105-98-133-260-58-389l346-595c39-67 101-116 172-140z"/>
    <path class="fil2 str0" d="m7220 17408l666-1769-6-3c-780-349-1470-846-2076-1444-17 775-13 1552 3 2340l1413 876zm1777-1769l668 1774 1411-874c16-821 22-1584 5-2349-607 599-1297 1097-2078 1446l-6 3zm2044-2529c-22-293-34-590-59-895l389 618c55 88 142 144 245 176 7-10 15-21 23-33l149-209c130-184 117-176 340-159l302 22h16c6-137-34-288-103-410l-1002-1767c-300-567-829-1072-1425-1302-153 39-316 59-490 59h-2012c-159 0-313-17-463-53-589 233-1112 734-1409 1296l-1002 1767c-69 122-109 273-103 410h16l302-22c223-17 210-25 340 159l149 209c8 12 16 23 23 33 102-32 190-88 245-176l389-618c-24 294-37 587-58 880-3 43-13 46 38 71 618 293 1269 501 1945 610 21 3 39 11 54 24 59-50 136-80 219-80h708c82 0 157 29 216 78 15-14 33-22 54-26 669-109 1313-316 1925-606 40-20 42-26 39-56z"/>
    <path class="fil3" d="m5216 13172l5 542c0 90-73 164-163 165l-293 2c-67 1-125-39-151-97l-26 46c-58 99-186 133-285 76l-322-187c-99-58-132-185-75-284l345-595c42-73 123-110 201-102l311-23c182-14 139-35 245 114l149 209c31 44 58 74 59 134zm6451 0l-5 542c0 90 73 164 163 165l293 2c67 1 125-39 151-97l26 46c58 99 186 133 285 76l322-187c98-58 132-185 75-284l-345-595c-42-73-123-110-201-102l-311-23c-182-14-139-35-245 114l-149 209c-31 44-58 74-59 134z"/>
    <path class="fil4" d="m3960 13830c-216 490-379 996-472 1523 806-40 1342 279 1694 843 160-88 331-165 509-235-9-1158-22-2180 68-3320l-156 249c-67 107-170 176-288 216 5 19 8 40 8 65l5 542c1 149-120 271-269 273l-293 2c-50 1-97-13-138-36-99 95-254 119-378 46l-290-168zm8849 66c202 470 355 954 443 1457-805-40-1342 279-1693 843-118-64-241-123-368-177 11-1176 24-2220-67-3378l156 249c67 107 170 176 288 216-5 19-8 40-8 65l-5 542c-1 149 120 271 269 273l293 2c50 1 97-13 138-36 99 95 254 119 378 46l176-102zm-3747 2220c-196 108-370 235-523 382-131 127-78 135-201 0-148-162-311-307-501-424l161-428h887l177 470z"/>
    <path class="fil4" d="m5809 16640l1372 870-41 110c-91 241 28 814 28 1149 0 218-182 357-396 397l-1395 257c-214 39-397-179-397-397v-197c0-218 187-339 397-397l452-125c71-19 59-3 51-70-10-85-6-175-12-262-31-435-49-883-59-1335zm3897 882l37 98c91 241-28 814-28 1149 0 218 182 357 396 397l1395 257c214 39 397-179 397-397v-197c0-218-187-339-397-397l-479-132c-40-12-32-3-26-44 12-90 7-187 14-281 31-433 49-879 59-1329l-1362 864-6 12z"/>
    <path class="fil5" d="m9426 9103h-2012c-2015 0-2637-2951-2589-4510 30-972 363-1824 694-2636 145-354 425-509 624-269 289 349 496 700 746 1057 12 18 14 15 33 3 257-167 556-281 884-281h1227c324 0 619 112 874 274 32 19 37 17 63-16 269-331 450-694 734-1037 199-240 478-85 623 269 332 812 665 1664 694 2636 48 1561-580 4510-2595 4510z"/>
    <path class="fil3" d="m5520 7558c371 773 966 1438 1894 1438h2012c932 0 1529-669 1900-1446-774 196-1627 227-2337-178-89 53-178 111-265 165-291 181-340 180-632-2-86-53-175-111-263-163-701 400-1542 375-2309 186z"/>
    <path class="fil3" d="m6494 5084c227 29 512 43 756 137 230 89 423 249 493 558l157 696c47 210-130 360-396 455-446 157-1140 159-1438 27-185-82-381-195-369-432l42-784c16-302 427-697 755-657zm3911 0c-227 29-512 43-756 137-230 89-423 249-492 558l-158 696c-47 210 130 360 397 455 445 157 1139 159 1437 27 186-82 381-195 369-432l-42-784c-16-302-427-697-755-657z"/>
     <path class="fil6" d="m6851 5697h205c254 0 461 208 461 461v99c0 253-207 461-461 461h-205c-253 0-460-208-460-461v-99c0-253 207-461 460-461z"/>
     <path class="fil1" d="m6928 5865h138c170 0 309 139 309 309v67c0 170-139 309-309 309h-138c-171 0-310-139-310-309v-67c0-170 139-309 310-309z"/>
     <path class="fil6" d="m6828 5924h53c65 0 118 53 118 118v26c0 65-53 118-118 118h-53c-65 0-119-53-119-118v-26c0-65 54-118 119-118z"/>
     <path class="fil6" d="m10079 5697h-206c-253 0-460 208-460 461v99c0 253 207 461 460 461h206c253 0 460-208 460-461v-99c0-253-207-461-460-461z"/>
     <path class="fil1" d="m10002 5865h-138c-170 0-309 139-309 309v67c0 170 139 309 309 309h138c170 0 310-139 310-309v-67c0-170-140-309-310-309z"/>
     <path class="fil6" d="m10102 5924h-53c-65 0-118 53-118 118v26c0 65 53 118 118 118h53c65 0 119-53 119-118v-26c0-65-54-118-119-118z"/>
    <path class="fil1" d="m9017 8019c122-49 244-115 366-203 96-69 63 19 25 66-30 35-278 310-432 466-112 114-81 107-227 107h-542c-147 0-115 7-228-107-153-156-401-431-431-466-39-47-71-135 25-66 122 88 244 154 366 203 223 90 811 107 1078 0z"/>
    <path class="fil7" d="m9395 4919c-10-18-4-41 15-51 69-39 139-77 208-112 69-36 136-68 200-94 65-26 127-45 193-52 67-7 137-2 216 22 77 23 164 64 254 113 78 43 160 92 243 142 3 2 5 3 8 5l26 16c18 10 23 34 13 51-11 18-34 24-52 13-9-5-18-11-27-16-26-16-52-31-84-49-32-16-66-33-108-50-41-17-91-35-141-52-54-18-107-35-150-47-41-11-72-18-99-21-26-4-48-5-70-4-22 2-44 5-69 10-24 6-51 14-81 25-29 10-61 23-94 38-38 16-77 35-115 53-36 18-72 36-107 55-35 18-71 37-107 56-18 10-41 3-51-15-9-18-14-23-21-36zm-1944 0c10-18 4-41-14-51-70-39-140-77-209-112-68-36-136-68-199-94-66-26-128-45-194-52-67-7-137-2-216 22-77 23-163 64-254 113-78 43-160 92-243 142-2 2-5 3-8 5l-26 16c-18 10-23 34-12 51 10 18 33 24 51 13 9-5 18-11 27-16 26-16 52-31 85-49 31-16 66-33 108-50 41-17 90-35 140-52 54-18 107-35 150-47 41-11 73-18 100-21 25-4 47-5 69-4 22 2 45 5 69 10 25 6 51 14 81 25 29 10 61 23 94 38 38 16 77 35 115 53 36 18 72 36 108 55 34 18 70 37 106 56 18 10 41 3 51-15 9-18 15-23 21-36z"/>
    <path class="fil8" d="m11759 6233c116-548 171-1119 155-1637-28-928-340-1751-686-2598-66-161-262-460-442-242-271 328-465 707-732 1037-59 72-123 89-204 38-247-156-522-256-817-256h-1227c-298 0-578 101-826 263-67 43-132 36-179-31-246-353-466-718-741-1051-180-218-376 81-442 242-346 847-658 1670-686 2598-16 512 37 1075 150 1616 65-1282 752-2506 1915-3104 442-227 926-346 1423-346s981 119 1423 346c1169 601 1858 1835 1916 3125z"/>
    <path class="fil4" d="m8440 9280h-1011c-122 0-245-10-366-29-102-17-84-29-180 16-196 91-469 258-639 446-85 93-87 162 15 119 290-121 532-228 824-141 407 121 807 629 1057 629h599c250 0 650-508 1057-629 292-87 534 20 824 141 102 43 100-26 15-119-170-188-443-355-639-446-96-45-78-33-180-16-121 19-244 29-366 29h-1010z"/>
    <path class="fil1" d="m8329 11090c-69 1-165-1-222-44-56-42-76-120-87-186-1-8-8-13-16-12-322 28-647 25-970 9-7 0-14 5-15 12-2 8 2 15 10 18 271 91 507 251 375 570-2 6-2 11 2 15 4 5 8 7 14 6 243-38 539-56 762 66 125 68 211 171 268 300 2 6 7 9 13 9 7 0 12-3 14-9 171-392 572-425 947-378 27 4 55 8 83 12 5 1 10-1 14-6 3-4 4-9 2-15-133-319 104-479 375-570 7-3 12-10 10-18-1-7-8-12-15-12-323 16-648 19-970-9-8-1-15 4-16 12-11 66-31 144-87 186-57 43-153 45-222 44-9 0-16-5-20-12-29-65-32-145-50-214-2-7-8-11-16-11-7 0-13 5-14 13l-13 78c-2 10-11 18-22 18-10 0-19-8-21-18l-13-78c-1-8-7-13-14-13-8 0-14 4-16 11-18 69-21 149-51 214-3 7-10 12-19 12z"/>
    <path class="fil4" d="m5835 13262c650 309 1308 513 1974 619-32 53-51 114-51 180v496l1 8c7 107 63 201 147 258v1l5 3 2 1c9 6 17 11 26 16l2 1 5 2 2 1 6 3 1 1 6 2 2 1 6 3h1l6 3h1l5 2h1l4 2 4 1 5 2h2l7 3h1l8 2 6 1 2 1h2l2 1 5 1h3l6 2 7 1h1l8 1h3l6 1 8 1h9l8 1h717c188 0 341-154 341-341v-4c1-67 10-335 0-482 0-26-3-51-9-75-9-38-24-73-44-104 659-107 1310-310 1953-616h1l27 782c-640 648-1345 1149-2117 1494h-1035c-773-345-1477-846-2117-1494l28-782z"/>
    <path class="fil9" d="m9255 14420c599-193 1177-462 1701-810-2-56-4-112-7-168-546 246-1116 428-1705 535 7 33 11 66 11 100v343zm-3327-809c531 352 1117 623 1723 817v-351c0-32 3-64 10-96-596-107-1173-289-1726-538-2 56-4 112-7 168zm2171 216h708c129 0 234 105 234 234v482c0 128-105 234-234 234h-708c-129 0-234-106-234-234v-482c0-129 105-234 234-234z"/>
    <path class="fil1" d="m23759 2178h925c618 0 1124 506 1124 1124v856c0 523-362 965-848 1089 257 115 480 337 609 581l448 790c35 62 55 138 52 209v5c31 11 59 32 77 63l154 265c39 67 16 154-51 193l-144 83c-56 33-125 22-169-21-18 11-40 17-62 17l-131-1c-67-1-120-56-120-122l2-242c0-11 2-21 4-29-53-18-99-49-129-97l-70-111 17 213v2l14 359v316c0 285 1 569-4 853 0 9-3 17-7 24 4 7 6 15 6 24-5 199-12 398-27 596-2 34-1 68-4 103l189 52c109 30 212 98 212 223v88c0 123-103 249-234 225l-623-115c-114-21-216-100-216-224 0-75 10-153 17-228 6-66 22-207-2-269l-16-44c-4-9-4-18-2-27-8-5-13-12-16-22l-304-806h-397l-303 804c-3 9-8 16-15 21 2 8 1 17-2 25l-19 49c-23 62-7 203-1 269 7 75 17 153 17 228 0 124-102 203-216 224l-624 115c-130 24-233-102-233-225v-88c0-125 103-193 212-223l188-52c-2-35-1-69-3-103-15-199-23-399-27-599 0-9 2-17 6-24-4-7-7-15-7-24-8-388-3-776-4-1164v-2l14-359v-2l17-213-70 111c-30 48-76 79-129 97 2 8 4 18 4 29l2 242c0 66-54 121-120 122l-131 1c-23 0-44-6-62-17-44 43-113 54-169 21l-144-83c-67-39-90-126-51-193l154-265c18-31 45-52 77-63v-5c-3-71 17-147 52-209l447-788c129-244 349-463 602-580-492-119-860-565-860-1092v-856c0-618 505-1124 1124-1124z"/>
    <path class="fil10" d="m23685 8960l315-835h463l315 838 631-391c6-284 5-572 4-852v-314l-14-359-32-408 174 276c24 40 63 65 109 79 3-5 7-9 10-14l67-94c58-82 52-78 152-71l135 10h7c3-61-15-129-46-183l-448-790c-134-254-371-480-637-582-68 15-138 22-209 22h-899c-71 0-141-7-209-22-266 102-503 328-638 582l-447 790c-31 54-49 122-46 183h7l135-10c99-7 94-11 152 71l66 94c4 5 8 9 11 14 45-14 84-39 109-79l174-276-33 408-13 359c1 375-4 772 4 1163l631 391z"/>
    <path class="fil11" d="m22790 7067l2 242c0 40-32 74-73 74l-131 1c-30 0-56-18-67-43l-12 20c-26 45-83 60-127 34l-144-84c-44-25-59-82-34-127l155-265c19-33 54-50 90-46l138-10c82-6 63-16 110 51l66 93c14 20 27 33 27 60zm2883 0l-2 242c0 40 32 74 73 74l131 1c29 0 55-18 67-43l12 20c26 45 83 60 127 34l144-84c44-25 59-82 34-127l-155-265c-19-33-54-50-90-46l-138-10c-82-6-63-16-110 51l-67 93c-13 20-26 33-26 60z"/>
    <path class="fil11" d="m23055 8617l613 389-18 49c-41 108 12 364 12 514 0 97-81 159-177 177l-623 115c-96 17-178-80-178-178v-88c0-97 84-151 178-177l202-56c31-9 26-1 23-31-5-38-3-78-6-118-14-194-22-394-26-596zm1742 394l16 44c41 108-13 364-13 514 0 97 82 159 178 177l623 115c96 17 177-80 177-178v-88c0-97-83-151-177-177l-214-59c-18-5-14-1-12-20 6-40 4-83 7-126 14-193 21-392 26-593l-609 386-2 5z"/>
    <path class="fil11" d="m23759 2226h925c592 0 1076 484 1076 1076v856c0 592-484 1076-1076 1076h-925c-592 0-1077-484-1077-1076v-856c0-592 485-1076 1077-1076z"/>
    <path class="fil1" d="m24056 3960l-52 4 7-27c4-16 7-32 8-48l48 27c-5 14-9 29-11 44zm-717-1617c-16 7-31 14-46 22l207 372c-40 121-100 226-181 312-83 88-188 158-317 208l-272-154c-3 18-6 36-8 53l256 145c6 59 7 118 5 176-6 6-11 11-16 17-67 74-87 234-66 403-19 56-40 110-62 160l-128 11v50l129-10 24 64c82 213 155 404 120 609l-4 20 4 1-32 22c11 13 22 26 34 39l53-38c119 51 224 110 317 175 81 57 152 120 213 188 27 5 54 9 81 12l178-368c68-4 131 3 191 20 61 18 119 46 173 84v269h54l-1-269c55-38 112-66 173-84 60-17 124-24 191-20l179 368c27-3 53-6 80-11 61-68 132-131 213-189 93-65 199-124 318-175l56 40c11-13 23-26 33-39l-34-24 4-1-4-20c-35-205 38-396 119-609l25-64 133 11v-51l-132-11c-5-10-10-21-14-32 50-212 40-439-43-531-24-27-55-51-88-70 0-41 2-82 6-123l261-147c-3-18-6-35-9-53l-276 156c-129-50-234-120-317-208-81-86-141-191-182-312l209-374c-15-8-31-15-46-21l-204 366c-123 26-239 22-348-8-107-29-207-83-302-159v-286h-55l1 286c-95 76-196 130-302 159-109 30-225 34-348 8l-203-365zm-409 1707l-34 3c7-18 15-36 22-54l12 51zm104-613c1-35 0-71-3-106l103 59c-35 11-69 27-100 47zm350-60l333 80c3 1 7 2 11 2l2-2c36-45 68-95 90-146l-287-515c-42 110-101 206-178 288-79 84-178 153-297 204l148 84c60-10 121-9 178 5zm394 100c144 61 239 202 244 356l71 40c3-5 8-10 12-14s9-9 13-12l-268-482c-20 39-45 77-72 112zm214 539l-24 99 100-69c-5-12-8-23-10-36l-66 6zm-42 173l-13 56c-39 162-176 288-331 308 22 17 43 35 64 54 49 45 94 95 133 149 102-213 209-425 317-642-5-4-10-8-15-13-4-4-7-8-11-12l-144 100zm-432 364c-20-2-41-7-62-14l-4-2-364 254c110 50 209 106 297 168 94 66 165 126 231 205 52-121 106-239 162-356-40-59-89-115-142-164-38-34-77-65-118-91zm-126-36l-173-58c-127-44-221-190-274-359l-53 4 20 50c81 212 154 402 125 611l355-248zm1732-1140l-332 80c-23 5-45 13-66 22-6-8-12-15-18-22-36-45-68-95-90-146l287-515c42 110 100 206 177 288 80 84 178 153 298 204l-137 78c-40-2-81 1-119 11zm-444 126c-103 62-173 169-190 288l-135 76c-2-3-5-6-8-8-7-8-15-14-24-20l264-474c23 44 51 85 81 123l12 15zm-193 348c0 28 4 57 11 86l8 33-110-9c-2-18-6-36-14-51l105-59zm31 170l37 154-174-122c6-13 11-27 14-42l123 10zm55 228c35 140 145 253 275 292-28 20-54 42-80 66-49 45-94 95-133 149-101-211-207-419-313-634 9-6 18-13 25-21l6-6 220 154zm344 306c29 3 59 1 89-4l344 240c-110 50-210 106-298 168-94 66-164 126-230 205-52-121-106-239-162-356 40-59 89-115 142-164 37-34 75-64 115-89zm152-22l220-74c72-24 132-81 181-156-54 155-91 303-69 462l-332-232zm334-1133c-24-10-50-18-77-23l80-46-3 69zm-1241 421l-271-486c54 5 106 2 155-7 51-9 100-25 148-47l-2 531c-10 2-20 5-30 9zm83-11l-1-529c47 22 96 38 147 47 50 9 102 12 155 7l-268 482c-10-4-21-6-33-7zm31 334l308 636c-63-1-123 7-180 24-56 16-109 40-159 72l-1-348 1-378c11-1 21-3 31-6zm-83 4l1 380-1 348c-51-32-104-56-159-72-58-17-118-25-181-24l311-640c9 3 19 6 29 8zm119-253c-22-22-52-36-86-36-33 0-63 14-85 36-22 21-35 52-35 85s13 63 35 85 52 36 85 36c34 0 64-14 86-36 21-22 35-52 35-85s-14-64-35-85zm88-617c-54-10-106-28-156-53l2-620c91 67 187 116 289 144 104 28 213 35 329 16l-288 516c-61 9-120 7-176-3zm-207-53c-50 25-102 43-155 53-56 10-115 12-177 3l-287-516c115 19 225 12 329-16 102-28 198-77 289-144l1 620z"/>
    <path class="fil6" d="m23373 3423c-122-29-285 8-371 103-41 46-55 133-59 192-7 97 5 200 27 295 33 138 117 350 265 400l237 81c185 62 375-81 418-260l74-308c45-186-72-378-258-423l-333-80zm1762 0l-332 80c-187 45-304 237-259 423l74 308c44 179 234 322 419 260l237-81c148-50 231-262 264-400 23-95 34-198 28-295-5-59-19-146-60-192-85-95-248-132-371-103z"/>
    <path class="fil11" d="m23092 7155l-9 234c785 455 1517 455 2301 1l-9-235c-87 51-194 111-281 133-37 9-83 15-114-11-37-32-29-88-17-129l3-6c177-301 264-632 281-980 1-30 2-86 38-96 39-11 72 44 88 70l420 649c28-6 61-1 88 1l111 8c-3-48-19-97-42-138l-448-791c-129-243-357-464-615-566-68 15-137 22-206 22h-895c-69 0-138-7-206-22-258 102-486 322-615 567l-448 790c-23 40-39 90-42 138l111-8c27-2 60-7 88-1l420-649c16-27 49-82 88-71 37 11 38 67 38 96 17 348 104 680 282 980 1 2 2 4 2 7 12 41 21 97-16 128-31 27-78 21-115 12-87-22-194-82-281-133z"/>
    <path class="fil1" d="m24362 6568c-2 12-6 24-11 35l71 50c1-16 1-32-1-48-2-12-5-23-10-33l-49-4zm-313 0c2 12 6 24 10 35l-71 50c0-16 0-32 2-48 2-12 5-23 9-33l50-4zm-477-1233c-15 7-31 14-46 21l285 513c-22 51-54 100-90 145-42 52-89 99-135 135l-537-303c120-51 218-120 298-204 75-81 134-176 176-284-25 12-48 25-72 39-37 79-84 149-141 210-71 76-159 138-264 185-19 29-33 53-48 82l25 15 544 308c-18 64-43 127-75 186-35 66-79 129-131 189l-50 4c4 17 8 34 13 50l37-3c37 64 59 132 70 203 7 42 10 85 10 130 27 57 56 113 89 168 33 23 66 49 97 78 53 48 102 105 142 164-39 81-77 163-114 245 17 5 34 10 50 15l115-237c67-4 131 4 191 21 61 18 118 46 173 83l-1 208h18v1l4-1h1l4 1v-1h18l-1-208c55-37 112-65 173-83 60-17 124-25 191-21l115 237c16-5 33-10 49-15-36-82-74-164-113-245 40-59 88-116 142-164 31-29 64-55 97-78 33-55 62-111 88-168 1-45 4-88 11-130 11-71 33-139 69-203l38 3c5-16 9-33 13-50l-50-4c-52-60-96-123-131-189-32-59-57-122-75-186l544-308 25-15c-16-29-30-53-48-82-105-47-193-109-264-185-58-61-105-131-141-210-24-14-48-27-72-39 42 108 100 203 176 284 80 84 178 153 298 204l-537 303c-46-36-94-83-136-135-36-45-67-94-90-145l286-513c-16-7-31-14-46-21l-281 504c-62 8-120 7-176-3-54-10-106-28-156-53l1-433h-43l1 433c-50 25-102 43-156 53-56 10-115 11-176 3l-281-504zm371 1349l-97 68c-11-37-23-82-21-116 2-32 12-41 36-53l87-7c-1 1-1 1-1 2-12 48-12 59-4 106zm-133 93l-319 223c2-63-1-123-10-182-11-69-32-136-65-199l349-28v5c-1 21 2 42 7 62 8 39 21 79 38 119zm80-756c-5 7-9 15-12 23-34 76-51 157-54 239l-191-107c44-37 88-81 128-130 30-38 58-80 81-123l144 259c-6 37-8 74-9 111-1 25 2 52 14 74 3 6 7 12 11 17l-138-78c-1-24 1-47 2-63 2-43 7-85 12-128 4-31 8-63 12-94zm-67 320c0 25 1 51 5 75 8 39 19 35 55 36 42 1 84-3 126-6l49 28-1 3c-42 11-83 22-125 34-23 7-46 14-68 21l-433 35c41-51 76-104 105-160 32-59 58-121 76-185l211 119zm8 483c19 42 41 82 63 117 6 10 12 20 18 31l-51-169 94-66c13 48 33 95 55 138-73 147-146 292-216 438-39-53-84-104-133-149-49-44-101-83-154-114l324-226zm210 110l2 6-1-8 67-138c23 61 49 99 75 114l1 178-1 347c-50-31-103-55-159-71-57-17-117-25-180-24l196-404zm-19-83c-8-34-17-69-22-104-2-11-4-24-6-37l84-58c0 24 4 46 9 69-22 43-43 87-65 130zm162-694c-39 16-57 70-57 110-1 29 6 60 25 84 5 6 12 12 18 18l3 3c-7 2-13 4-20 7l-121-218c5-51 11-101 19-151 2-12 4-23 6-34-25 40-43 84-55 130l-119-213c53 4 105 2 155-8 51-9 100-25 147-46l-1 318zm-75 245h-10c-30 0-50-3-60-36-10-32-13-72-12-111l82 147zm-142 20c-25 1-51 0-68-12-13-9-21-24-26-41l94 53zm501 262l97 68c11-37 22-82 21-116-2-32-12-41-36-53l-87-7c0 1 0 1 1 2 12 48 12 59 4 106zm133 93l318 223c-1-63 1-123 11-182 11-69 32-136 64-199l-348-28v5c1 21-3 42-7 62-8 39-22 79-38 119zm-80-756c4 7 9 15 12 23 34 76 51 157 54 239l191-107c-44-37-88-81-128-130-31-38-58-80-81-123l-144 259c5 37 8 74 9 111 1 25-2 52-14 74-3 6-7 12-11 17l138-78c0-24-1-47-2-63-2-43-8-85-13-128-3-31-7-63-11-94zm67 320c0 25-1 51-6 75-7 39-18 35-55 36-41 1-83-3-125-6l-50 28 2 3c42 11 83 22 125 34 23 7 46 14 68 21l433 35c-41-51-76-104-106-160-31-59-57-121-76-185l-210 119zm-8 483c-20 42-42 82-63 117-6 10-12 20-18 31l51-169-94-66c-14 48-33 95-55 138 73 147 146 292 216 438 38-53 84-104 133-149 48-44 101-83 154-114l-324-226zm-210 110l-3 6 2-8-67-138c-23 61-49 99-76 114v178l1 347c50-31 103-55 159-71 57-17 117-25 180-24l-196-404zm19-83c8-34 16-69 22-104 2-11 4-24 6-37l-84-58c-1 24-4 46-9 69 22 43 43 87 65 130zm-162-694c39 16 56 70 57 110 1 29-7 60-25 84-5 6-12 12-18 18l-3 3c7 2 13 4 19 7l122-218c-5-51-12-101-19-151-2-12-4-23-6-34 25 40 43 84 55 130l119-213c-54 4-105 2-155-8-51-9-100-25-147-46l1 318zm75 245h10c30 0 50-3 60-36 10-32 13-72 12-111l-82 147zm142 20c24 1 50 0 68-12 13-9 21-24 26-41l-94 53z"/>
    <path class="fil1" d="m23558 11683h924c619 0 1125 506 1125 1124v135h80l70-437c4-26 20-50 43-62 29-15 63-10 84 15l113 121 104-432c8-32 36-59 69-63 43-4 76 32 72 74v1l-89 748c-3 28-19 53-44 66-28 15-61 11-82-12l-105-81-38 112c81 53 134 144 134 247v270c0 164-134 297-297 297h-123c-60 459-398 834-839 946 257 115 480 337 609 581l448 790c35 62 55 138 52 209v5c31 11 59 32 77 63l154 265c39 67 16 154-51 193l-144 83c-56 33-125 22-169-21-18 11-40 17-62 17l-131-1c-67-1-120-56-120-122l2-242c0-11 2-21 4-29-53-18-99-49-129-97l-70-111 17 213v2l14 359v316c0 285 1 569-4 853 0 9-3 17-7 24 4 7 6 15 6 24-5 199-12 398-27 596-2 34-1 68-4 103l189 52c109 30 212 98 212 223v88c0 123-103 249-234 225l-623-115c-114-21-216-100-216-224 0-75 10-153 17-228 6-66 22-207-2-269l-16-44c-4-9-4-18-2-27-8-5-13-12-16-22l-304-806h-397l-303 804c-3 9-8 16-15 21 2 8 1 17-2 25l-19 49c-23 62-7 203-1 269 7 75 17 153 17 228 0 124-102 203-216 224l-624 115c-130 24-233-102-233-225v-88c0-125 103-193 212-223l188-52c-2-35-1-69-3-103-15-199-23-399-27-599 0-9 2-17 6-24-5-7-7-15-7-24-8-388-3-776-4-1164v-2l14-359v-2l17-213-70 111c-30 48-76 79-129 97 2 8 4 18 4 29l2 242c0 66-54 121-120 122l-131 1c-23 0-44-6-62-17-44 43-113 54-169 21l-144-83c-67-39-90-126-51-193l154-265c18-31 45-52 77-63v-5c-3-71 17-147 52-209l447-788c129-244 349-463 602-580-447-108-791-485-851-949h-123c-164 0-297-133-297-297v-270c0-97 47-183 119-238l-41-121-105 81c-21 23-54 27-82 12-25-13-41-38-44-65l-89-749v-1c-4-42 29-78 72-74 33 4 61 31 69 63l104 432 113-121c21-25 55-30 84-15 23 12 39 36 43 61l70 438h98v-135c0-618 505-1124 1124-1124z"/>
    <path class="fil11" d="m23484 18465l315-835h463l315 838 631-391c6-284 5-572 4-852v-314l-1-43-1051 481c-32 15-70 5-92-23s-22-67 0-95l145-179c-32 17-65 33-98 50-18 9-50 27-75 31-26 5-70-20-92-31-33-17-66-33-98-50l145 179c22 28 22 67 0 95s-60 38-92 23l-1053-482-1 44c1 375-4 772 4 1163l631 391zm1715-1908l-1-5-32-408 174 276c24 40 63 65 109 79 3-5 7-9 10-14l67-94c58-82 52-78 152-71l135 10h7c3-61-15-129-46-183l-448-790c-134-254-371-480-637-582-68 15-138 22-209 22h-899c-71 0-141-7-209-22-266 102-503 328-638 582l-447 790c-31 54-49 122-46 183h7l135-10c99-7 93-11 152 71l66 94c4 5 7 9 11 14 45-14 84-39 109-79l174-276-33 408v4l349 160-215-268c-23-29-23-69 0-97s62-36 94-19l941 486 942-486c32-17 71-9 94 19s23 68 0 97l-215 268 347-159z"/>
    <path class="fil11" d="m22589 16572l2 242c0 40-32 74-73 74l-131 1c-30 0-56-18-67-43l-12 20c-26 45-83 60-127 34l-144-84c-44-25-59-82-34-127l155-265c18-33 54-50 90-46l138-10c82-6 62-16 110 51l66 93c14 20 27 33 27 60zm2883 0l-2 242c0 40 32 74 72 74l132 1c29 0 55-18 67-43l12 20c26 45 83 60 127 34l144-84c44-25 59-82 34-127l-155-265c-19-33-55-50-90-46l-138-10c-82-6-63-16-110 51l-67 93c-13 20-26 33-26 60z"/>
    <path class="fil12" d="m22854 18122l613 389-18 49c-41 108 12 364 12 514 0 97-81 159-177 177l-623 115c-96 17-178-80-178-178v-88c0-97 84-151 178-177l202-56c31-9 26-1 23-31-5-38-3-78-6-118-14-194-22-394-26-596zm1742 394l16 44c41 108-13 364-13 514 0 97 82 159 178 177l623 115c96 17 177-80 177-178v-88c0-97-83-151-177-177l-214-59c-18-5-14-1-12-20 6-40 4-83 7-126 13-193 21-392 26-593l-609 386-2 5z"/>
    <path class="fil11 str0" d="m23558 11731h924c592 0 1077 484 1077 1076v856c0 592-485 1076-1077 1076h-924c-592 0-1077-484-1077-1076v-856c0-592 485-1076 1077-1076z"/>
    <path class="fil3" d="m23139 12861c-122-25-286 6-371 87-41 39-55 113-59 163-7 82 5 170 27 251 33 117 117 297 265 340l236 68c185 53 376-68 419-221l74-261c45-158-72-321-258-359l-333-68zm1762 0l-332 68c-187 38-304 201-259 359l74 261c43 153 234 274 419 221l237-68c148-43 231-223 264-340 23-81 34-169 27-251-4-50-18-124-59-163-85-81-248-112-371-87z"/>
    <path class="fil13" d="m25667 16017l-72 78 9-191-63-111-322 381 56 90 223-264-16 365 238-256-53-92zm-3145-228l-60 106 9 200-76-82-52 92 241 260-16-365 220 260 56-89-322-382z"/>
    <path class="fil12" d="m24396 16899c-37 20-350 190-365 188-14 2-327-168-364-188l290 362c9 11 9 25 1 36-9 11-23 14-35 8l-1071-490 8-207 515 235-342-425c-9-11-9-26 0-37 9-10 23-13 35-7l963 498 964-498c12-6 26-3 35 7 9 11 9 26 0 37l-342 425 513-234 8 207-1069 489c-12 6-26 3-35-8-8-11-8-25 1-36l290-362z"/>
    <path class="fil3" d="m22659 13876c312 68 547 55 744-12 181-61 330-168 478-298 55-49 73-32 149-32 78 0 94-17 151 33 181 159 363 282 604 331 170 35 369 32 617-22-120 362-385 584-703 704-208 77-439 111-669 111-255 0-512-42-738-139-287-125-522-341-633-676z"/>
    <path class="fil6" d="m23940 15364h174l-453 356v-77c0-154 126-279 279-279zm370 30c90 46 153 140 153 248-9-7-20-10-33-10l-332-2 212-236zm153 343v151c0 153-125 278-278 278h-200l478-429zm-668 388c-68-42-117-112-130-193l275-12-145 205z"/>
    <path class="fil12" d="m24034 15659l396 1c12 0 23 8 27 19s1 23-8 31l-705 634c-11 10-27 10-38 0s-13-26-4-38l295-417-444 19c-12 0-24-7-28-19s-1-25 9-32l832-655c12-9 28-8 39 3 10 11 10 28 0 39l-371 415z"/>
    <path class="fil12" d="m22320 12990h114v673c0 32 1 64 4 95h-118c-137 0-250-112-250-249v-270c0-93 53-175 129-218l-74-220-163 125c-5 9-15 10-26 5-10-6-17-17-18-28l-89-749c-1-14 7-23 19-22s24 12 27 26l125 518 176-187c5-8 15-9 24-4 10 5 17 16 19 27l76 479c8 0 16-1 25-1zm3703-314l-176-187c-5-8-15-9-24-4-10 5-17 16-19 27l-76 478h-121v673c0 32-2 64-4 95h118c137 0 249-112 249-249v-270c0-99-59-185-144-225l72-213 163 125c5 9 15 10 26 5 10-6 17-17 18-28l89-749c1-14-7-23-19-22s-24 12-27 26l-125 518z"/>
     <path class="fil6" d="m23262 13067h92c113 0 206 93 206 206v45c0 113-93 205-206 205h-92c-113 0-206-92-206-205v-45c0-113 93-206 206-206z"/>
     <path class="fil1" d="m23296 13142h62c76 0 138 62 138 139v29c0 76-62 139-138 139h-62c-76 0-138-63-138-139v-29c0-77 62-139 138-139z"/>
     <path class="fil6" d="m23252 13169h23c30 0 53 23 53 53v11c0 29-23 53-53 53h-23c-29 0-53-24-53-53v-11c0-30 24-53 53-53z"/>
     <path class="fil6" d="m24788 13067h-92c-113 0-206 93-206 206v45c0 113 93 205 206 205h92c113 0 205-92 205-205v-45c0-113-92-206-205-206z"/>
     <path class="fil1" d="m24753 13142h-61c-76 0-138 62-138 139v29c0 76 62 139 138 139h61c76 0 139-63 139-139v-29c0-77-63-139-139-139z"/>
     <path class="fil6" d="m24798 13169h-24c-29 0-53 23-53 53v11c0 29 24 53 53 53h24c29 0 53-24 53-53v-11c0-30-24-53-53-53z"/>
    <path class="fil1" d="m24271 14066c55-22 109-51 164-91 43-31 28 9 11 30-13 16-124 138-193 208-50 51-36 48-102 48h-242c-65 0-51 3-102-48-68-70-179-192-192-208-17-21-32-61 11-30 54 40 109 69 163 91 100 40 363 48 482 0z"/>
    <path class="fil14" d="m24212 13823v-41c0-30-12-57-32-76-20-21-47-32-76-32h-138c-30 0-57 12-76 31-21 21-32 48-32 77v40c0 20 17 31 34 32 17 0 33-10 33-32v-40c0-11 5-21 12-29 8-7 18-12 29-12h138c11 0 21 5 29 12 7 8 11 18 11 29v41c0 20 20 31 38 31 15-1 30-11 30-31z"/>
    <path class="fil1" d="m17642 11697c518 107 896 568 896 1100v288l30 3c133 14 246 112 246 251v340c0 139-114 231-244 250l-70 11c-105 396-417 699-803 800 254 116 474 336 602 579l448 789c35 62 55 138 52 209v5c31 11 59 33 77 63l154 266c39 67 16 153-51 192l-144 84c-56 32-125 22-169-21-18 10-40 16-62 16l-131-1c-67-1-120-55-120-122l2-242c0-11 2-21 4-29-53-18-99-49-129-97l-70-111 17 214v2l14 358v317c0 490 4 1006-32 1496-2 35-1 69-4 103l189 52c109 30 212 98 212 224v88c0 122-103 248-234 224l-623-115c-114-21-216-99-216-224 0-75 10-153 17-228 6-66 22-207-2-269-12-32-23-62-34-92l-304-807h-397l-303 804c-6 16-11 31-17 46l-19 49c-23 62-7 203-1 269 7 75 17 153 17 228 0 125-102 203-216 224l-624 115c-130 24-233-102-233-224v-88c0-126 103-194 212-224l188-52c-2-34-1-69-3-103-43-595-30-1216-32-1810v-2l14-359v-2l17-214-70 111c-30 48-76 79-129 97 2 8 4 18 4 29l2 242c0 67-54 121-120 122l-131 1c-23 0-44-6-62-16-44 43-113 53-169 21l-144-84c-67-39-90-125-51-192l154-266c18-30 45-52 77-63v-5c-3-71 17-147 52-209l447-788c128-241 345-459 596-576-393-98-712-405-818-807l-54-8c-130-19-244-111-244-250v-340c0-139 114-237 247-251l15-1v-290c0-555 410-1029 957-1111 37-62 110-155 174-156 161-3 322-7 482-7 161 0 322 4 482 7 67 1 144 101 182 167z"/>
    <path class="fil15" d="m16415 18451l298-791-6-3-380-211c-2-1-3-2-5-4-188-143-369-293-542-454 0 348-3 712 4 1071l631 392zm795-790l298 792 631-391c6-284 5-571 4-851v-220c-172 159-352 309-539 451-2 2-4 3-6 4l-379 211c-3 1-6 3-9 4zm916-1171l-21-257-15-25c-10-16-10-36 1-52s30-24 49-20c67 13 137 14 202-10l226-213c2-3 6-6 9-7l-223-394-179 131v241c0 24-17 44-40 48-268 45-469 177-585 424-8 18-25 28-44 28h-1021c-21 0-38-12-45-31-102-267-303-400-585-430-25-2-43-23-43-47v-262l-217-147-268 472c2 1 3 2 5 3l213 157c80 29 162 38 246 36 18-1 34 8 43 24s9 34-1 49l-15 24-21 258c6 0 12 2 18 5 288 143 593 244 908 308h480c315-64 620-165 908-308 5-3 10-4 15-5z"/>
    <path class="fil11" d="m15520 16557l2 242c0 41-32 74-73 74l-131 1c-30 0-56-17-67-43l-12 21c-26 44-83 59-127 33l-144-83c-44-26-59-83-34-127l155-266c18-33 54-49 90-46l138-10c82-6 63-16 110 51l66 94c14 19 27 33 27 59zm2883 0l-2 242c0 41 32 74 73 74l131 1c29 0 55-17 67-43l12 21c26 44 83 59 127 33l144-83c44-26 59-83 34-127l-155-266c-19-33-54-49-90-46l-138-10c-82-6-63-16-110 51l-67 94c-13 19-26 33-26 59z"/>
    <path class="fil11" d="m15785 18107l613 389-18 49c-41 108 12 364 12 514 0 97-81 160-177 177l-623 115c-96 18-178-80-178-177v-88c0-98 84-152 178-178l202-56c31-8 26-1 23-31-5-38-3-78-6-117-14-194-22-395-26-597zm1742 395l16 43c41 108-13 364-13 514 0 97 82 160 178 177l623 115c96 18 177-80 177-177v-88c0-98-83-152-177-178l-214-59c-18-5-14-1-12-19 6-41 4-84 7-126 13-194 21-393 26-594l-609 386-2 6z"/>
    <path class="fil11" d="m17610 11739c499 93 880 534 880 1058v332l73 7c111 11 203 91 203 203v340c0 111-92 186-203 203l-101 15c-112 475-540 832-1049 832h-924c-509 0-938-358-1049-834l-86-13c-110-17-203-92-203-203v-340c0-112 92-192 203-203l58-6v-333c0-545 412-999 939-1067 39-71 110-152 146-153 485-8 477-8 963 0 38 1 113 89 150 162z"/>
    <path class="fil16" d="m16334 11829c-467 75-826 482-826 968v856c0 539 442 980 981 980h207l29-75c11-28 25-55 55-55h396c31 0 45 27 56 55l28 75h153c540 0 981-441 981-980v-856c0-470-336-866-779-959-196 196-341 410-383 660-10 59-49 108-107 108h-293c-59 0-97-49-107-108-43-254-191-471-391-669z"/>
    <path class="fil17" d="m16534 11720c-14 15-33 39-46 61 182 193 328 415 376 681h228c48-266 195-488 377-681-14-22-32-46-46-61-148-2-297-5-445-5s-296 3-444 5z"/>
     <path class="fil9" d="m18357 13919c-500 50-942 274-1169 585 23 6 34 29 44 54l28 75h183c6 0 12-1 17-1h9c4-1 9-1 14-1l9-1c6 0 11-1 16-1l7-1c7-1 15-2 22-2l1-1h3c6-1 13-2 19-3l8-1c5-1 10-2 15-2l8-2c5-1 9-2 14-3l9-1c5-1 10-3 15-4l6-1c8-2 15-4 22-5l5-2c6-1 11-3 17-4l7-3c5-1 10-2 14-4l9-2c4-2 8-3 13-5l8-2 15-6 6-2c7-2 13-5 20-8l7-2c4-2 9-4 13-6l9-3 12-6 8-3 12-6 8-4c5-2 9-5 14-7l6-3c6-3 12-6 19-10l6-3c4-3 9-5 13-8l7-4c4-2 8-4 12-7l8-5 10-6c3-2 6-4 8-5 4-3 8-5 12-8l7-4c5-4 11-8 17-12l6-5c4-3 8-5 12-8l7-6 9-7 9-7c3-2 6-4 8-7 3-2 6-4 8-6 4-3 7-6 10-8 4-4 8-7 12-11 3-3 7-6 10-9 3-2 6-5 8-7l8-7c2-3 5-5 8-8l7-7 9-8 6-7c3-3 6-6 8-9l7-7c5-5 10-10 14-15 3-3 5-6 7-8 3-3 5-6 8-9l6-8 7-8 7-9 7-8c2-3 5-7 7-10 2-2 4-5 6-7 3-5 7-10 11-15l6-9c2-4 5-7 7-10l7-10 5-9 6-9 6-9 6-9 5-10 6-9c3-5 6-11 9-16 2-4 4-7 6-11 1-3 3-6 5-10 2-3 3-7 5-10 1-3 3-6 5-9l5-11 4-9 5-10c1-4 3-7 4-11 2-3 3-6 4-9l1-1c2-6 5-12 7-18 1-3 2-6 4-9 1-4 3-8 4-12 1-3 3-7 4-10l3-10 4-11 4-11 3-10c1-4 2-7 3-11 1-3 2-7 3-10zm-842 709c7-1 15-2 22-2l-22 2zm-1609-188c3 2 6 4 10 7 3 3 7 5 11 8s8 6 13 9c3 2 6 4 8 6l10 6 9 6 9 5 10 6 9 6c3 2 6 4 9 5 4 3 8 5 12 7l11 6c5 2 10 5 15 8l7 4 12 6 9 4c4 2 8 3 12 5l8 4c4 2 8 4 13 5l7 4 15 6 8 3c6 2 12 5 18 7l8 3c4 1 8 3 13 4l8 3c5 2 9 3 14 5l8 2c4 2 9 3 14 4l7 3c6 1 12 3 17 4l6 2c7 2 14 3 21 5l6 1c5 1 10 3 16 4l8 1c5 1 9 2 14 3l9 2c4 0 9 1 14 2l8 1c7 1 14 2 20 3h3v1c7 0 15 1 22 2l7 1c5 0 11 1 16 1l9 1c5 0 10 0 15 1h8c6 0 11 1 17 1h237l29-75c9-23 20-45 40-53-235-322-699-551-1221-591 1 6 3 11 5 17l1 5c2 5 3 10 5 15l1 4c8 24 17 48 27 71v2c3 5 5 10 7 16l2 3c2 5 4 10 7 16l1 3c3 5 5 10 8 15v2c9 17 17 33 26 49l2 3c3 5 5 9 8 14l2 3c3 5 6 10 9 15l2 3c3 5 6 10 9 15 10 15 21 30 31 45l4 4c3 4 6 8 9 12l3 4c3 5 6 9 10 13l3 3c3 5 6 9 10 13l1 2c12 13 24 27 36 40l3 3c3 4 7 7 10 11l5 5c3 3 7 6 10 10l5 4c3 4 7 7 10 11l4 3c7 7 15 14 23 21l3 3c3 2 7 5 10 8l6 6c4 2 7 5 10 8l7 5c3 3 7 5 10 8l8 6c3 2 6 4 9 7z"/>
    <path class="fil9" d="m18394 12802c-426 182-919 287-1444 287s-1017-104-1442-286v-6c0-486 359-893 826-968 200 198 348 415 391 669 10 59 48 108 107 108h293c58 0 97-49 107-108 42-250 187-464 383-660 443 93 779 489 779 959v5z"/>
    <path class="fil6" d="m16088 13233l530 105c61 12 144 59 114 114l-67 122c-30 54-52 118-114 114l-406-29c-62-4-96-54-114-114l-57-198c-18-60 52-126 114-114zm1793 0l-530 105c-62 12-144 59-114 114l67 122c30 54 52 118 114 114l405-29c63-4 97-54 114-114l58-198c17-60-53-126-114-114z"/>
    <path class="fil1" d="m17245 14068c61-15 121-36 182-63 47-21 31 6 12 20-15 11-138 96-214 143-55 35-40 33-112 33h-269c-72 0-57 2-113-33-76-47-198-132-213-143-19-14-35-41 12-20 61 27 121 48 182 63 110 27 401 32 533 0z"/>
    <path class="fil18" d="m15618 15425l242 164v287c317 33 522 190 625 460h1021c114-243 316-400 621-452v-266l203-148-73-128c-134-254-371-480-637-582-68 15-138 23-209 23h-899c-71 0-141-8-209-23-266 102-503 328-638 582l-47 83z"/>
    <path class="fil11" d="m18600 15947l-232 220c-68 27-147 34-237 16l140 223c24 39 63 64 109 78 3-4 7-9 10-14l67-94c58-82 52-78 152-71l135 10h7c3-61-15-129-46-183l-105-185zm-3297 34l-85 151c-31 54-49 122-46 183h7l135-10c99-7 94-11 152 71l66 94c4 5 7 10 11 14 45-14 84-39 109-78l140-223c-90 2-180-7-270-41l-219-161z"/>
    <path class="fil18" d="m15793 16538c291 144 600 247 925 313h490c324-66 633-169 924-313l14 358v27c-182 170-373 330-571 481l-379 211h-466l-379-211c-199-151-390-311-571-481v-27l13-358z"/>
    <path class="fil16" d="m16466 16380l-136 322c129 40 260 74 393 101h480c164-33 325-77 483-131l-157-294c-7 4-14 6-23 6h-1021c-7 0-13-1-19-4z"/>
    <path class="fil1" d="m16926 15288h127c182 0 330 149 330 331v126c0 182-148 331-330 331h-127c-182 0-331-149-331-331v-126c0-182 149-331 331-331z"/>
    <path class="fil19" d="m16926 15336h127c155 0 282 127 282 283v126c0 156-127 283-282 283h-127c-156 0-283-127-283-283v-126c0-156 127-283 283-283z"/>
    <path class="fil16" d="m16926 15384c-129 0-235 105-235 235v126c0 129 106 235 235 235h127c129 0 235-106 235-235v-126c0-130-106-235-235-235h-127z"/>
     <path class="fil1" d="m17900 1946c482 61 849 476 849 964v735c0 110-19 219-56 323 145 97 121 259 121 420 0 156-127 284-283 284h-149c-115 261-339 457-606 539 258 118 478 341 604 579l447 790c35 61 56 138 53 208 0 2-1 4-1 6 32 10 60 32 77 62l155 266c38 67 15 154-51 193l-24 13c1 2 1 4 2 6 92 212 161 433 201 661 3 15-1 29-11 40-10 12-23 17-38 16-308-15-550 92-714 355-14 21-41 29-64 16-46-25-93-48-141-69-3 257-10 514-27 770v4l-1 5v9l-1 10v2l-1 7v9l-1 10v6l-1 2v22l-1 2v11c0 20 0 40-2 59l188 53c110 30 213 98 213 223v88c0 122-104 249-234 225l-623-115c-115-21-217-100-217-225 0-75 10-153 17-227l1-3v-7l1-4v-7l1-3v-4l1-4v-8l1-4v-9l1-4v-5l1-4v-9l1-5v-9l1-5v-9l1-5v-14l1-5v-75l-1-4v-9l-1-4v-4l-1-4v-4l-1-4v-4l-1-4-1-3v-4l-1-3-1-4-1-3-1-3-1-3-1-3-16-44-1-1-225-599c-79 44-153 97-218 160-23 22-45 57-81 57-35 0-56-36-78-60-61-67-128-127-206-175l-249 662-1 3-1 3-1 3-1 3-1 4v3l-1 4-1 3-1 4v4l-1 4v4l-1 4v8h-1v13l-1 5v65l1 5v14l1 5v14l1 5v9l1 5v4l1 5v9l1 4v9l1 4v4l1 4v8l1 3v7l1 4v7l1 3c7 74 17 152 17 227 0 125-102 204-217 225l-623 115c-130 24-234-103-234-225v-88c0-125 103-193 213-223l188-53c-2-28-2-56-3-85v-13l-1-1v-13l-1-4v-5l-1-8v-11l-1-2v-7c-18-268-25-536-28-805-70 28-139 59-205 95-22 13-50 5-64-16-163-263-405-370-713-355-15 1-29-4-39-16-10-11-13-25-11-40 42-239 116-469 214-691 1-3 3-6 4-8-46-44-59-116-25-174l154-266c17-30 45-52 77-62 0-2 0-4-1-6-3-70 18-147 53-208l447-789c126-238 346-462 604-580-267-82-491-278-606-539h-149c-156 0-283-128-283-284 0-158-22-320 115-416-38-105-57-216-57-327v-735c0-488 367-903 849-964 184-191 435-299 700-299h323c265 0 516 108 700 299z"/>
     <path class="fil3" d="m17336 5254v31c0 108-89 197-198 197h-192c-109 0-198-89-198-197v-31h588z"/>
     <path class="fil10" d="m16496 8922l315-836h462l316 838 631-391c7-391 3-789 4-1165l-845 80h-7v39c0 54-46 99-103 99h-462c-56 0-102-45-102-99v-39c-2 0-3-1-5-1l-840-79c1 375-3 772 4 1163l632 391zm1714-1913l-32-408 173 276c25 39 64 65 110 79 3-5 6-10 10-15l67-93c58-82 52-79 152-71l135 10c2-1 5-1 7-1 2-61-15-128-46-183l-448-789c-134-254-371-480-638-583-67 15-137 23-208 23h-108v31c0 135-111 245-246 245h-192c-135 0-245-110-245-245v-31h-109c-71 0-141-8-208-23-267 103-504 329-638 583l-448 789c-30 55-48 122-46 183 3 0 5 0 7 1l135-10c100-8 94-11 152 71l67 93c4 5 7 10 10 15 46-14 85-40 110-79l173-276-32 408c4 0 8 1 12 2l819 243v-14c0-54 46-98 102-98h462c57 0 103 44 103 98v16l824-245c5-1 9-2 14-2z"/>
     <path class="fil20" d="m18651 3944c32-94 50-195 50-299v-735c0-474-362-868-824-919-169-182-410-296-677-296h-323c-267 0-508 114-677 296-461 51-824 445-824 919v735c0 105 18 207 51 302 3-1 5-3 8-4 61-28 122-28 185-27l1-418v-3c18-358 239-680 564-830 19-9 41-5 55 10 166 176 395 276 637 276h323c243 0 473-101 639-278 14-15 36-19 55-11 346 159 570 504 570 885v369c64-1 126-1 187 28z"/>
     <path class="fil3" d="m18767 4388c0 130-107 236-236 236h-181c-136 340-470 582-858 582h-900c-388 0-722-242-858-582h-181c-129 0-235-106-235-236 0-155-30-323 137-401 66-31 142-22 213-22l1-467c17-340 227-646 536-790 169 179 408 291 672 291h323c265 0 505-113 674-293 328 150 542 478 542 841v418c73 0 150-10 217 23 162 80 134 239 134 400z"/>
     <path class="fil3" d="m15600 7029l3 242c0 40-33 73-73 74l-131 1c-30 0-56-18-67-44l-12 21c-26 44-83 59-127 34l-144-84c-45-26-60-83-34-127l154-266c19-32 55-49 90-45l139-11c81-6 62-15 109 51l67 94c14 19 26 33 26 60zm2884 0l-2 242c-1 40 32 73 72 74l131 1c30 0 56-18 68-44l12 21c25 44 82 59 127 34l144-84c44-26 59-83 33-127l-154-266c-19-32-55-49-90-45l-139-11c-81-6-62-15-109 51l-67 94c-14 19-26 33-26 60z"/>
     <path class="fil11" d="m15039 7323c-96 219-169 445-211 681 360-18 600 124 757 376 72-39 148-74 228-105-3-359 2-719-2-1078v-4l32-402-70 112c-30 47-76 79-128 96 2 9 3 18 3 29l2 242c1 67-53 122-120 122l-131 2c-22 0-43-6-62-17-44 43-113 53-168 21l-130-75zm3955 29c90 210 159 427 198 652-360-18-599 124-757 376-52-28-107-55-164-79 3-368-2-736 2-1104v-4l-32-402 70 112c30 47 76 79 128 96-2 9-3 18-3 29l-2 242c-1 67 53 122 120 122l131 2c22 0 43-6 62-17 44 43 113 53 169 21l78-46zm-1675 993c-87 48-165 105-233 170-59 57-35 60-90 0-66-72-139-137-224-189l72-192h396l79 211z"/>
     <path class="fil21" d="m17784 5300c-28-14-57-27-86-39-68 15-137 22-206 22h-80v2c0 151-123 274-274 274h-192c-151 0-274-123-274-274v-2h-80c-69 0-138-7-206-22-29 12-58 25-86 39 241 90 406 447 606 447h261c220 0 374-357 617-447z"/>
     <path class="fil11" d="m15865 8579l614 389-19 49c-40 108 13 364 13 513 0 98-81 160-177 178l-624 115c-95 17-177-80-177-178v-88c0-98 83-151 177-177l202-56c32-9 27-2 23-31-4-38-2-79-5-118-14-194-22-394-27-596zm1742 394l17 44c40 108-13 364-13 513 0 98 82 160 177 178l624 115c96 17 177-80 177-178v-88c0-98-83-151-177-177l-214-59c-18-5-15-2-12-20 6-40 3-84 6-126 14-193 22-392 27-593l-609 386-3 5z"/>
     <path class="fil11" d="m17008 6846l-645-687c-9-10-13-22-12-35 0-14 6-26 17-34l270-225c9-7 19-11 31-11h748c12 0 22 4 31 11l271 225c10 8 16 20 17 34 1 13-4 25-13 35l-645 687c-19 20-51 20-70 0z"/>
     <polygon class="fil22" points="17043 6743 17618 6131 17400 5950 16686 5950 16468 6131"/>
     <path class="fil12" d="m16807 7190c-28 0-52 23-52 50v247c0 28 24 51 52 51h462c29 0 53-23 53-51v-247c0-27-24-50-53-50h-462zm-936-133l-12 142c1 40 1 80 1 121l845 80v-96l-834-247zm2339 0l-838 249v94h2l847-80c1-41 1-81 1-121l-12-142z"/>
       <path class="fil6" d="m16408 3842h92c113 0 205 93 205 206v44c0 114-92 206-205 206h-92c-113 0-206-92-206-206v-44c0-113 93-206 206-206z"/>
       <path class="fil1" d="m16442 3917h62c76 0 138 62 138 138v30c0 76-62 138-138 138h-62c-76 0-138-62-138-138v-30c0-76 62-138 138-138z"/>
       <path class="fil6" d="m16397 3943h24c29 0 53 24 53 53v12c0 29-24 53-53 53h-24c-29 0-52-24-52-53v-12c0-29 23-53 52-53z"/>
       <path class="fil6" d="m17697 3842h-91c-114 0-206 93-206 206v44c0 114 92 206 206 206h91c114 0 206-92 206-206v-44c0-113-92-206-206-206z"/>
       <path class="fil1" d="m17663 3917h-62c-76 0-138 62-138 138v30c0 76 62 138 138 138h62c76 0 138-62 138-138v-30c0-76-62-138-138-138z"/>
       <path class="fil6" d="m17708 3943h-24c-29 0-53 24-53 53v12c0 29 24 53 53 53h24c29 0 53-24 53-53v-12c0-29-24-53-53-53z"/>
     <path class="fil23" d="m17225 4500v-41c0-29-12-56-32-76s-48-32-76-32h-138c-30 0-57 12-76 32-21 20-32 48-32 76v41c0 20 17 31 34 31 17 1 33-9 33-31v-41c0-11 5-21 12-28 8-8 18-12 29-12h138c11 0 21 4 28 12 8 7 12 18 12 28v41c0 21 20 32 37 31 16-1 31-10 31-31z"/>
     <path class="fil1" d="m17299 4736c55-21 109-51 164-91 43-30 28 9 11 30-13 16-124 138-193 208-50 51-36 48-102 48h-242c-65 0-51 3-102-48-68-70-179-192-192-208-17-21-32-60 11-30 54 40 109 70 163 91 100 40 363 48 482 0z"/>
     <path class="fil20" d="m17383 3691c-10-18-3-40 14-49 31-17 62-34 94-51 29-15 60-30 91-42 29-12 59-22 91-25 36-4 70 1 104 11 41 12 81 32 117 52 37 20 74 42 110 64 1 1 3 1 3 2l12 7c17 10 22 32 12 49s-32 23-49 13c-4-3-8-5-12-8-13-7-25-14-37-21-15-8-31-15-47-22-20-8-41-15-61-22-22-8-44-15-67-21-13-4-27-7-41-9-10-1-19-2-28-1-9 0-18 2-27 4-12 2-23 6-34 10-14 5-28 11-41 16l-51 24-48 24c-15 8-31 17-47 25-17 10-39 3-49-15-2-5-6-10-9-15zm-682 0c-3 5-7 10-9 15-10 18-32 25-49 15-16-8-32-17-47-25l-48-24-51-24c-13-5-27-11-41-16-11-4-22-8-34-10-9-2-18-4-27-4-9-1-18 0-28 1-14 2-28 5-41 9-23 6-45 13-67 21-20 7-41 14-61 22-16 7-32 14-47 22-12 7-24 14-37 22-4 2-8 4-12 7-17 10-39 4-49-13s-5-39 12-49l11-7c1-1 3-1 4-2 36-22 73-44 110-64 36-20 76-40 117-52 34-10 68-15 104-11 32 3 62 13 91 25 31 12 62 27 91 42 32 17 63 34 94 51 17 9 24 31 14 49z"/>
    <path class="fil21" d="m16607 6226c-7-8-14-16-21-24-12-13-24-26-37-39l-18-19c-4-4-4-10 0-14l126-122c17-17 11-17 37-17l65 1c4 0 8 3 9 7s-1 9-5 11c-32 18-63 43-86 71-35 43-52 83-53 138 0 4-2 8-6 9-4 2-8 1-11-2zm582 311l-138 148c-2 2-4 3-7 3s-5-1-7-3l-13-13c-25-30-54-57-80-86l-43-47c-3-3-4-7-2-11s6-6 10-5c18 2 35 5 52 7 70 6 141 5 211-7 3-1 5-1 7-2 5-1 9 1 11 5s2 8-1 11zm-387-104l-91-98c-3-3-4-8-1-12 2-3 6-5 11-4 4 1 9 3 13 4 58 11 118 14 177 16 79 3 288 2 352 33 14 7 27 19 23 36-14 57-204 65-252 63-3 0-5-1-7-4-38-48-111-78-171-61-17 4-29 10-38 25-2 3-4 4-8 5-3 0-6-1-8-3zm598-140c-12-20-23-32-42-46-62-48-158-55-234-57-74-1-160 7-233-8-26-6-52-14-73-32-22-18-32-49-20-74 21-45 94-66 139-74 61-10 134-7 193 12 59 18 101 59 113 121 2 12 7 8 18 8 54 0 108 2 162 0l1-117c0-4 2-8 5-9 4-2 8-1 11 2l88 84c10 9 20 17 28 27 4 4 4 9 0 13l-131 141-10 10c-2 3-5 4-8 3-3 0-6-2-7-4z"/>
</svg>
